<?xml version="1.0" standalone="no"?>
<!DOCTYPE svg PUBLIC "-//W3C//DTD SVG 20010904//EN"
 "http://www.w3.org/TR/2001/REC-SVG-20010904/DTD/svg10.dtd">
<svg version="1.0" xmlns="http://www.w3.org/2000/svg"
 width="360.000000pt" height="360.000000pt" viewBox="0 0 360.000000 360.000000"
 preserveAspectRatio="xMidYMid meet">

<g transform="translate(0.000000,360.000000) scale(0.100000,-0.100000)"
fill="#000000" stroke="none">
<path d="M2800 3238 c-11 -18 -93 -158 -183 -310 l-162 -278 -480 3 -480 2
-176 300 c-156 265 -210 340 -209 293 0 -7 36 -146 79 -308 44 -162 78 -296
77 -297 -1 -1 -152 -29 -336 -63 -184 -34 -345 -64 -357 -67 -28 -6 -30 -33
-3 -33 26 0 26 -26 0 -33 -20 -5 -20 -12 -18 -134 l3 -128 55 0 55 0 3 128 c2
122 2 129 -18 134 -11 3 -20 12 -20 19 0 12 55 14 341 12 l342 -3 63 -235 c35
-129 109 -416 165 -638 l102 -403 -87 -317 c-47 -174 -101 -374 -119 -445 -19
-70 -36 -129 -38 -132 -3 -2 -25 -5 -49 -7 -43 -3 -45 -5 -48 -35 l-3 -33
-507 -2 c-443 -3 -507 -5 -507 -18 0 -13 152 -15 1310 -15 1158 0 1310 2 1310
15 0 12 -22 15 -122 18 l-123 3 0 29 c0 33 -21 43 -73 38 l-32 -3 -66 255
c-36 140 -91 345 -121 455 l-54 200 107 425 c59 234 128 504 154 600 25 96 51
192 56 213 l10 37 344 0 c287 0 345 -2 345 -14 0 -7 -9 -16 -20 -19 -19 -5
-20 -14 -20 -136 l0 -131 55 0 55 0 0 135 c0 128 -1 135 -20 135 -11 0 -20 7
-20 15 0 8 9 15 20 15 27 0 25 28 -2 35 -13 2 -171 32 -352 65 -181 33 -332
62 -334 65 -3 3 29 137 71 297 43 161 77 298 77 305 0 27 -21 22 -40 -9z
m-1472 -365 l131 -223 -78 0 -78 0 -57 217 c-32 119 -60 223 -63 232 -14 39
22 -18 145 -226z m1387 21 c-31 -115 -58 -217 -61 -226 -4 -15 -18 -18 -80
-18 -41 0 -74 3 -74 6 0 9 264 453 267 450 2 -2 -22 -97 -52 -212z m-1426
-328 c6 -25 11 -47 11 -50 0 -3 -118 -6 -262 -5 -145 0 -257 3 -249 6 12 5
444 88 477 92 7 0 17 -19 23 -43z m219 4 c12 -21 22 -44 22 -49 0 -7 -35 -11
-95 -11 l-94 0 -12 43 c-6 23 -13 45 -16 50 -2 4 35 7 84 7 l88 0 23 -40z
m916 28 c-4 -7 -18 -30 -31 -50 l-23 -38 -394 0 -394 0 -31 50 -31 50 456 0
c361 0 454 -3 448 -12z m216 10 c0 -2 -6 -23 -14 -48 l-13 -45 -97 -3 c-53 -1
-96 0 -96 3 0 8 30 67 42 83 7 8 39 12 94 12 46 0 84 -1 84 -2z m304 -48 c121
-22 221 -42 224 -45 3 -3 -113 -5 -257 -5 l-261 0 6 28 c15 62 23 73 46 67 13
-3 122 -23 242 -45z m-1384 -87 c0 -16 -105 -363 -110 -363 -3 0 -25 75 -49
168 -24 92 -46 175 -49 185 -4 15 6 17 102 17 58 0 106 -3 106 -7z m400 -7 c0
-8 -7 -16 -15 -20 -12 -4 -15 -29 -15 -136 l0 -131 48 3 47 3 3 128 c2 123 2
129 -18 134 -11 3 -19 11 -17 17 3 8 59 11 182 11 l178 0 64 -210 64 -209
-247 -241 c-136 -132 -253 -240 -259 -240 -6 0 -122 108 -257 240 l-246 240
66 213 65 212 178 0 c146 0 179 -3 179 -14z m640 4 c0 -17 -93 -360 -96 -357
-2 2 -26 77 -54 168 -28 90 -53 172 -56 182 -5 15 4 17 100 17 67 0 106 -4
106 -10z m-1970 -160 c0 -95 -1 -100 -21 -97 -19 3 -20 11 -22 100 -2 95 -1
97 21 97 21 0 22 -3 22 -100z m1360 -1 c0 -76 -3 -100 -12 -97 -9 3 -14 35
-16 101 -2 82 0 97 13 97 12 0 15 -17 15 -101z m1378 4 c-3 -90 -5 -98 -23
-98 -18 0 -20 8 -23 98 l-3 97 26 0 26 0 -3 -97z m-982 -680 c-50 -199 -93
-364 -96 -367 -3 -2 -68 58 -145 135 l-140 140 235 229 c129 126 235 228 236
227 1 -1 -40 -165 -90 -364z m-506 -27 l65 -66 -137 -137 c-86 -86 -141 -134
-147 -128 -5 6 -45 161 -90 345 -45 184 -85 344 -88 355 -5 18 242 -212 397
-369z m240 -231 l137 -135 -282 0 -281 0 135 135 c75 74 140 135 146 135 5 0
70 -61 145 -135z m-212 -204 c-31 -39 -322 -350 -325 -347 -1 1 16 69 38 152
22 82 44 166 50 187 l10 37 125 0 125 0 -23 -29z m381 -8 c40 -152 81 -326 78
-329 -2 -2 -55 51 -118 118 -62 68 -140 151 -173 186 l-59 62 131 0 131 0 10
-37z m-219 -67 c47 -51 136 -147 199 -214 l113 -122 -406 0 -407 0 202 215
c112 118 205 215 208 214 4 0 44 -42 91 -93z m-135 -384 c-29 -26 -478 -377
-484 -380 -6 -2 73 312 94 376 3 9 53 12 202 12 108 0 193 -4 188 -8z m481
-19 c4 -16 26 -102 49 -193 24 -91 42 -166 41 -167 -1 -1 -95 74 -210 167
-114 94 -222 181 -239 195 l-32 25 192 0 193 0 6 -27z m-176 -193 c223 -183
266 -222 225 -206 -23 9 -45 -11 -45 -40 l0 -24 -445 0 -445 0 0 29 c0 30 -19
45 -45 35 -21 -8 -19 9 3 22 9 6 125 97 257 202 140 112 244 188 250 183 5 -4
116 -95 245 -201z m-745 -250 c-3 -5 -42 -10 -86 -10 -46 0 -79 4 -79 10 0 6
35 10 86 10 54 0 83 -4 79 -10z m1125 0 c0 -6 -33 -10 -80 -10 -47 0 -80 4
-80 10 0 6 33 10 80 10 47 0 80 -4 80 -10z"/>
</g>
</svg>
